<svg xmlns="http://www.w3.org/2000/svg" version="1.1" xmlnsXlink="http://www.w3.org/1999/xlink" xmlnsSvgjs="http://svgjs.dev/svgjs" width="1000" height="113" viewBox="0 0 1000 113"><g transform="matrix(1,0,0,1,-0.6060606060606233,-0.4818972269694015)"><svg viewBox="0 0 396 45" data-background-color="#ffffff" preserveAspectRatio="xMidYMid meet" height="113" width="1000" xmlns="http://www.w3.org/2000/svg" xmlnsXlink="http://www.w3.org/1999/xlink"><g id="tight-bounds" transform="matrix(1,0,0,1,0.2400000000000091,0.19190597534179688)"><svg viewBox="0 0 395.52 44.616186603194244" height="44.616186603194244" width="395.52"><rect width="395.5199890136719" height="44.616188049316406" fill="url(#a64379aa-5c96-4bf9-87bf-10973b1c8fee)" mask="url(&quot;#2dcace92-1891-4a48-89a8-c3eb9b5682c0&quot;)" data-fill-palette-color="accent"></rect><rect width="395.5199890136719" height="44.616188049316406" fill="url(#45d7df61-c3ee-4488-953b-a7230bf905e5)" mask="url(&quot;#79cf131a-5e74-43df-9af1-389595a68cc8&quot;)" data-fill-palette-color="primary"></rect><g><svg viewBox="0 0 455.70666072126454 51.40547484592048" height="44.616186603194244" width="395.52"><g transform="matrix(1,0,0,1,0,7.1045193166214275)"><svg viewBox="0 0 395.52 37.196436212677625" height="37.196436212677625" width="395.52"><g id="textblocktransform"><svg viewBox="0 0 395.52 37.196436212677625" height="37.196436212677625" width="395.52" id="textblock"><g><svg viewBox="0 0 395.52 37.196436212677625" height="37.196436212677625" width="395.52"><g transform="matrix(1,0,0,1,0,0)"><svg width="395.52" viewBox="4 -29.450000762939453 313.1300048828125 29.450000762939453" height="37.196436212677625" data-palette-color="url(#45d7df61-c3ee-4488-953b-a7230bf905e5)"></svg></g></svg></g></svg></g></svg></g><g transform="matrix(1,0,0,1,404.30118587534406,0)"><svg viewBox="0 0 51.40547484592048 51.40547484592048" height="51.40547484592048" width="51.40547484592048"><g data-palette-color="url(#a64379aa-5c96-4bf9-87bf-10973b1c8fee)"></g></svg></g></svg></g><defs><linearGradient x1="0" x2="1" y1="0.5" y2="0.5" id="45d7df61-c3ee-4488-953b-a7230bf905e5"><stop stop-color="#f00b51" offset="0"></stop><stop stop-color="#730062" offset="1"></stop></linearGradient><linearGradient x1="0" x2="1" y1="0.5" y2="0.5" id="a64379aa-5c96-4bf9-87bf-10973b1c8fee"><stop stop-color="#ffa62e" offset="0"></stop><stop stop-color="#f71b3d" offset="1"></stop></linearGradient></defs><mask id="79cf131a-5e74-43df-9af1-389595a68cc8"><g id="SvgjsG2507"><svg viewBox="0 0 395.52 44.616186603194244" height="44.616186603194244" width="395.52"><g><svg viewBox="0 0 455.70666072126454 51.40547484592048" height="44.616186603194244" width="395.52"><g transform="matrix(1,0,0,1,0,7.1045193166214275)"><svg viewBox="0 0 395.52 37.196436212677625" height="37.196436212677625" width="395.52"><g id="SvgjsG2506"><svg viewBox="0 0 395.52 37.196436212677625" height="37.196436212677625" width="395.52" id="SvgjsSvg2505"><g><svg viewBox="0 0 395.52 37.196436212677625" height="37.196436212677625" width="395.52"><g transform="matrix(1,0,0,1,0,0)"><svg width="395.52" viewBox="4 -29.450000762939453 313.1300048828125 29.450000762939453" height="37.196436212677625" data-palette-color="url(#45d7df61-c3ee-4488-953b-a7230bf905e5)"><path d="M10.6 0L4 0 4-29.4 10.6-29.4 10.6 0ZM25.7 0L19.1 0 19.1-25.4 18.6-29.4 25.8-29.4 42.8-11.6 44.75-8.9 45.3-8.9 45.3-29.4 51.9-29.4 51.9 0 45.55 0 28.15-18.1 26.2-20.45 25.7-20.45 25.7 0ZM82.1 0L65.5 0Q62.1 0 60.5-0.3 58.9-0.6 58.9-1L58.9-1 60.9-5.35Q62.05-5.15 66.62-4.98 71.2-4.8 79.2-4.8L79.2-4.8 80.15-4.8Q82.3-4.8 83.2-5.58 84.1-6.35 84.1-8.2L84.1-8.2 84.1-9.2Q84.1-10.95 83.37-11.7 82.65-12.45 80.15-12.45L80.15-12.45 68.55-12.45Q63.5-12.45 61.2-14.33 58.9-16.2 58.9-20.45L58.9-20.45 58.9-21.25Q58.9-23.45 59.72-25.3 60.55-27.15 62.55-28.28 64.55-29.4 68.05-29.4L68.05-29.4 81.65-29.4Q85.05-29.4 87.15-29.05 89.25-28.7 89.25-28.3L89.25-28.3 88.25-24.1Q86.95-24.25 82.35-24.43 77.75-24.6 70-24.6L70-24.6 69.45-24.65Q67.15-24.65 66.35-23.73 65.55-22.8 65.5-21.4L65.5-21.4 65.5-20.55Q65.5-18.9 66.42-18.07 67.35-17.25 69.5-17.25L69.5-17.25 80.6-17.25Q83.8-17.25 86.05-16.6 88.3-15.95 89.5-14.23 90.7-12.5 90.7-9.15L90.7-9.15 90.7-8.35Q90.7-4.6 88.77-2.3 86.85 0 82.1 0L82.1 0ZM114.34 0L107.74 0 107.69-24.65 94.69-24.65 94.69-29.45 127.39-29.45 127.39-24.65 114.34-24.65 114.34 0ZM129.69 0L122.39 0 137.04-29.4 146.89-29.4 161.49 0 153.79 0 150.84-6.35 132.94-6.35 129.69 0ZM141.64-24.9L134.74-11.25 148.99-11.25 142.14-24.9 141.64-24.9ZM172.59 0L165.99 0 165.99-25.4 165.49-29.4 173.09-29.4 184.39-9.4 196.09-29.4 202.84-29.4 202.84 0 196.24 0 196.24-18.65 195.69-18.65 193.74-14.3 187.44-3 181.39-3 175.09-14.3 173.09-18.65 172.59-18.65 172.59 0ZM238.14 0L210.84 0 210.84-29.4 241.94-29.4 241.94-24.6 217.44-24.6 217.44-17.7 236.14-17.7 236.14-12.75 217.44-12.75 217.44-4.8 242.14-4.8 244.14-0.55Q244.14-0.35 242.79-0.18 241.44 0 238.14 0L238.14 0ZM276.43 0L249.13 0 249.13-29.4 280.23-29.4 280.23-24.6 255.73-24.6 255.73-17.7 274.43-17.7 274.43-12.75 255.73-12.75 255.73-4.8 280.43-4.8 282.43-0.55Q282.43-0.35 281.08-0.18 279.73 0 276.43 0L276.43 0ZM304.08 0L297.48 0 297.43-24.65 284.43-24.65 284.43-29.45 317.13-29.45 317.13-24.65 304.08-24.65 304.08 0Z" opacity="1" transform="matrix(1,0,0,1,0,0)" fill="white" class="undefined-text-0" id="SvgjsPath2504"></path></svg></g></svg></g></svg></g></svg></g><g transform="matrix(1,0,0,1,404.30118587534406,0)"><svg viewBox="0 0 51.40547484592048 51.40547484592048" height="51.40547484592048" width="51.40547484592048"><g data-palette-color="url(#a64379aa-5c96-4bf9-87bf-10973b1c8fee)"></g></svg></g></svg></g><defs><mask></mask></defs></svg></g></mask><mask id="2dcace92-1891-4a48-89a8-c3eb9b5682c0"><g id="SvgjsG2516"><svg viewBox="0 0 395.52 44.616186603194244" height="44.616186603194244" width="395.52"><g><svg viewBox="0 0 455.70666072126454 51.40547484592048" height="44.616186603194244" width="395.52"><g transform="matrix(1,0,0,1,0,7.1045193166214275)"><svg viewBox="0 0 395.52 37.196436212677625" height="37.196436212677625" width="395.52"><g id="SvgjsG2515"><svg viewBox="0 0 395.52 37.196436212677625" height="37.196436212677625" width="395.52" id="SvgjsSvg2514"><g><svg viewBox="0 0 395.52 37.196436212677625" height="37.196436212677625" width="395.52"><g transform="matrix(1,0,0,1,0,0)"><svg width="395.52" viewBox="4 -29.450000762939453 313.1300048828125 29.450000762939453" height="37.196436212677625" data-palette-color="url(#45d7df61-c3ee-4488-953b-a7230bf905e5)"></svg></g></svg></g></svg></g></svg></g><g transform="matrix(1,0,0,1,404.30118587534406,0)"><svg viewBox="0 0 51.40547484592048 51.40547484592048" height="51.40547484592048" width="51.40547484592048"><g data-palette-color="url(#a64379aa-5c96-4bf9-87bf-10973b1c8fee)"><rect width="14.050829791218264" height="51.40547484592048" fill="white" stroke="transparent" x="0" fill-opacity="1"></rect><rect width="14.050829791218264" height="51.40547484592048" fill="white" stroke="transparent" x="17.135158281973492" fill-opacity="0.75"></rect><rect width="14.050829791218264" height="51.40547484592048" fill="white" stroke="transparent" x="34.270316563946984" fill-opacity="0.5"></rect></g></svg></g></svg></g><defs><linearGradient x1="0" x2="1" y1="0.5" y2="0.5" id="SvgjsLinearGradient2513"><stop stop-color="#f00b51" offset="0"></stop><stop stop-color="#730062" offset="1"></stop></linearGradient><mask></mask></defs><mask id="SvgjsMask2512"><g id="SvgjsG2511"><svg viewBox="0 0 395.52 44.616186603194244" height="44.616186603194244" width="395.52"><g><svg viewBox="0 0 455.70666072126454 51.40547484592048" height="44.616186603194244" width="395.52"><g transform="matrix(1,0,0,1,0,7.1045193166214275)"><svg viewBox="0 0 395.52 37.196436212677625" height="37.196436212677625" width="395.52"><g id="SvgjsG2510"><svg viewBox="0 0 395.52 37.196436212677625" height="37.196436212677625" width="395.52" id="SvgjsSvg2509"><g><svg viewBox="0 0 395.52 37.196436212677625" height="37.196436212677625" width="395.52"><g transform="matrix(1,0,0,1,0,0)"><svg width="395.52" viewBox="4 -29.450000762939453 313.1300048828125 29.450000762939453" height="37.196436212677625" data-palette-color="url(#45d7df61-c3ee-4488-953b-a7230bf905e5)"></svg></g></svg></g></svg></g></svg></g><g transform="matrix(1,0,0,1,404.30118587534406,0)"><svg viewBox="0 0 51.40547484592048 51.40547484592048" height="51.40547484592048" width="51.40547484592048"><g data-palette-color="url(#a64379aa-5c96-4bf9-87bf-10973b1c8fee)"></g></svg></g></svg></g><defs><mask></mask></defs></svg></g></mask></svg></g></mask></svg><rect width="395.52" height="44.616186603194244" fill="none" stroke="none" visibility="hidden"></rect></g></svg></g></svg>