<svg xmlns="http://www.w3.org/2000/svg" version="1.1" xmlns:xlink="http://www.w3.org/1999/xlink" xmlns:svgjs="http://svgjs.dev/svgjs" width="1000" height="1000" viewBox="0 0 1000 1000"><rect width="1000" height="1000" fill="#ffffff"></rect><g transform="matrix(0.7,0,0,0.7,149.57575757575756,282.1265587044535)"><svg viewBox="0 0 396 247" data-background-color="#ffffff" preserveAspectRatio="xMidYMid meet" height="623" width="1000" xmlns="http://www.w3.org/2000/svg" xmlns:xlink="http://www.w3.org/1999/xlink"><g id="tight-bounds" transform="matrix(1,0,0,1,0.2400000000000091,-0.09999999999999432)"><svg viewBox="0 0 395.52 247.2" height="247.2" width="395.52"><rect width="395.5199890136719" height="247.1999969482422" fill="url(#4ca6f378-c10d-4720-90a2-161912dbf106)" mask="url(&quot;#2cc3fbce-c722-4a48-9f25-3631332fc7ff&quot;)" data-fill-palette-color="accent"></rect><rect width="395.5199890136719" height="247.1999969482422" fill="url(#7b322a0f-fc1c-4640-8515-e1d6559a359f)" mask="url(&quot;#e7f70871-56d3-45b9-8139-2984d122c274&quot;)" data-fill-palette-color="primary"></rect><g><svg></svg></g><g><svg viewBox="0 0 395.52 247.2" height="247.2" width="395.52"><g transform="matrix(1,0,0,1,39.55199999999999,100.04994307400379)"><svg viewBox="0 0 316.416 47.10011385199241" height="47.10011385199241" width="316.416"><g><svg viewBox="0 0 316.416 47.10011385199241" height="47.10011385199241" width="316.416"><g><svg viewBox="0 0 316.416 47.10011385199241" height="47.10011385199241" width="316.416"><g id="textblocktransform"><svg viewBox="0 0 316.416 47.10011385199241" height="47.10011385199241" width="316.416" id="textblock"><g><svg viewBox="0 0 316.416 47.10011385199241" height="47.10011385199241" width="316.416"><g transform="matrix(1,0,0,1,0,0)"><svg width="316.416" viewBox="4.199999809265137 -39.95000076293945 271.3849792480469 40.400001525878906" height="47.10011385199241" data-palette-color="url(#7b322a0f-fc1c-4640-8515-e1d6559a359f)"></svg></g></svg></g></svg></g></svg></g></svg></g></svg></g><g mask="url(&quot;#a1596a81-691e-45cb-8de8-efb106848ff7&quot;)"><g transform="matrix(5.379630222119129, 0, 0, 5.379630222119129, 1, 21.79050215072762)"><svg xmlns="http://www.w3.org/2000/svg" data-name="Layer 1" viewBox="13.229999542236328 30.540000915527344 73.15000915527344 37.849998474121094" x="0" y="0" height="37.849998474121094" width="73.15000915527344" class="icon-none" data-fill-palette-color="accent" id="none"></svg></g></g></svg></g><defs><mask id="a1596a81-691e-45cb-8de8-efb106848ff7"><rect width="640" height="400" fill="white"></rect><rect width="348.05760000000004" height="69.33852680743833" fill="black" y="88.93073659628084" x="23.731199999999973" id="transform-me"></rect></mask><linearGradient x1="0" x2="1" y1="0.5" y2="0.5" id="7b322a0f-fc1c-4640-8515-e1d6559a359f"><stop stop-color="#f00b51" offset="0"></stop><stop stop-color="#730062" offset="1"></stop></linearGradient><linearGradient x1="0" x2="1" y1="0.5" y2="0.5" id="4ca6f378-c10d-4720-90a2-161912dbf106"><stop stop-color="#f00b51" offset="0"></stop><stop stop-color="#730062" offset="1"></stop></linearGradient></defs><mask id="e7f70871-56d3-45b9-8139-2984d122c274"><g id="SvgjsG4329"><svg viewBox="0 0 395.52 247.2" height="247.2" width="395.52"><g><svg></svg></g><g><svg viewBox="0 0 395.52 247.2" height="247.2" width="395.52"><g transform="matrix(1,0,0,1,39.55199999999999,100.04994307400379)"><svg viewBox="0 0 316.416 47.10011385199241" height="47.10011385199241" width="316.416"><g><svg viewBox="0 0 316.416 47.10011385199241" height="47.10011385199241" width="316.416"><g><svg viewBox="0 0 316.416 47.10011385199241" height="47.10011385199241" width="316.416"><g id="SvgjsG4328"><svg viewBox="0 0 316.416 47.10011385199241" height="47.10011385199241" width="316.416" id="SvgjsSvg4327"><g><svg viewBox="0 0 316.416 47.10011385199241" height="47.10011385199241" width="316.416"><g transform="matrix(1,0,0,1,0,0)"><svg width="316.416" viewBox="4.199999809265137 -39.95000076293945 271.3849792480469 40.400001525878906" height="47.10011385199241" data-palette-color="url(#7b322a0f-fc1c-4640-8515-e1d6559a359f)"><path d="M10.15-37.55L10.15-2.1Q10.15 0.3 7.15 0.3L7.15 0.3Q4.2 0.3 4.2-2.1L4.2-2.1 4.2-37.55Q4.2-39.95 7.15-39.95L7.15-39.95Q10.15-39.95 10.15-37.55L10.15-37.55ZM40.3-10.5L40.3-37.55Q40.3-39.95 43.25-39.95L43.25-39.95Q46.2-39.95 46.2-37.55L46.2-37.55 46.2-3.05Q46.2-1.3 44.35-0.5L44.35-0.5 44.4-0.5Q43.6-0.15 42.7 0.05 41.8 0.25 40.95 0.25L40.95 0.25Q40.3 0.25 39.6 0.13 38.9 0 38.27-0.28 37.65-0.55 37.12-1.03 36.6-1.5 36.3-2.2L36.3-2.2 25.45-29.25 24.1-29.1 24.1-2.1Q24.1 0.3 21.1 0.3L21.1 0.3Q18.15 0.3 18.15-2.1L18.15-2.1 18.15-36.55Q18.15-38.6 19.95-39.3L19.95-39.3Q21.6-39.95 23.45-39.95L23.45-39.95Q24.75-39.95 26.07-39.43 27.4-38.9 28.1-37.45L28.1-37.45 38.9-10.35 40.3-10.5ZM62.95-22.85L72.59-22.85Q73.9-22.85 75.3-22.3 76.7-21.75 78-20.85L78-20.85 77.95-20.85Q79.25-19.95 79.95-18.4 80.65-16.85 80.65-14.85L80.65-14.85 80.65-8Q80.65-3.95 77.95-1.95L77.95-1.95Q76.65-1 75.27-0.48 73.9 0.05 72.59 0.05L72.59 0.05 61.7 0.05Q60.4 0.05 59.02-0.48 57.65-1 56.35-1.95L56.35-1.95Q53.65-3.95 53.65-8L53.65-8 53.65-11.3Q53.65-13.65 56.6-13.65L56.6-13.65Q59.6-13.65 59.6-11.3L59.6-11.3 59.6-8.4Q59.6-7.1 60.35-6.05 61.1-5 62.95-5L62.95-5 71.34-5Q73.2-5 73.95-6.05 74.7-7.1 74.7-8.4L74.7-8.4 74.7-14.45Q74.7-15.7 73.95-16.78 73.2-17.85 71.34-17.85L71.34-17.85 61.7-17.85Q59.1-17.85 56.35-19.75L56.35-19.75Q53.65-21.85 53.65-25.8L53.65-25.8 53.65-31.75Q53.65-33.75 54.35-35.27 55.05-36.8 56.35-37.75L56.35-37.75 56.3-37.75Q57.6-38.6 59-39.15 60.4-39.7 61.7-39.7L61.7-39.7 72.59-39.7Q73.9-39.7 75.3-39.15 76.7-38.6 78-37.75L78-37.75 77.95-37.75Q79.25-36.8 79.95-35.27 80.65-33.75 80.65-31.75L80.65-31.75 80.65-28.8Q80.65-26.45 77.65-26.45L77.65-26.45Q74.7-26.45 74.7-28.8L74.7-28.8 74.7-31.3Q74.7-32.55 73.95-33.6 73.2-34.65 71.34-34.65L71.34-34.65 62.95-34.65Q61.1-34.65 60.35-33.6 59.6-32.55 59.6-31.3L59.6-31.3 59.6-26.2Q59.6-24.9 60.35-23.88 61.1-22.85 62.95-22.85L62.95-22.85ZM101.84-34.65L101.84-2Q101.84 0.4 98.84 0.4L98.84 0.4Q95.89 0.4 95.89-2L95.89-2 95.89-34.65 87.14-34.65Q85.34-34.65 85.24-37.2L85.24-37.2Q85.24-39.7 87.14-39.7L87.14-39.7 110.59-39.7Q112.49-39.7 112.39-37.2L112.39-37.2Q112.39-34.65 110.59-34.65L110.59-34.65 101.84-34.65ZM140.99-1.2L129.99-34.8 119.04-1.2 119.04-1.25Q118.74-0.5 118.22-0.03 117.69 0.45 116.94 0.45L116.94 0.45Q116.54 0.45 116.17 0.38 115.79 0.3 115.39 0.2L115.39 0.2 115.44 0.2Q112.59-0.7 113.34-3L113.34-3 124.74-37.65Q124.99-38.45 125.62-39 126.24-39.55 127.09-39.65L127.09-39.65Q127.94-39.8 128.74-39.88 129.54-39.95 129.99-39.95L129.99-39.95Q130.44-39.95 131.24-39.88 132.04-39.8 132.89-39.7L132.89-39.7Q133.59-39.6 134.27-38.95 134.94-38.3 135.29-37.65L135.29-37.65Q138.09-29.05 140.97-20.33 143.84-11.6 146.64-3L146.64-3Q147.34-0.7 144.54 0.2L144.54 0.2Q144.14 0.3 143.81 0.38 143.49 0.45 143.09 0.45L143.09 0.45Q142.39 0.45 141.81-0.03 141.24-0.5 140.99-1.25L140.99-1.25 140.99-1.2ZM133.74-12L133.74-12Q133.74-10.4 132.62-9.28 131.49-8.15 129.89-8.15L129.89-8.15Q128.29-8.15 127.19-9.28 126.09-10.4 126.09-12L126.09-12Q126.09-13.6 127.19-14.73 128.29-15.85 129.89-15.85L129.89-15.85Q131.49-15.85 132.62-14.73 133.74-13.6 133.74-12ZM181.79-39.95L181.79-39.95Q183.39-39.95 185.29-39.2L185.29-39.2Q187.04-38.5 187.04-36.55L187.04-36.55 187.04-2.1Q187.04 0.3 184.09 0.3L184.09 0.3Q181.14 0.3 181.14-2.1L181.14-2.1 181.14-27.8 179.69-27.95 177.69-21.45 171.69-1.45Q171.14 0.3 168.99 0.25L168.99 0.25Q168.04 0.2 167.34-0.25 166.64-0.7 166.39-1.55L166.39-1.55 162.79-13.2Q161.69-16.65 160.59-20.23 159.49-23.8 158.19-28.15L158.19-28.15 156.74-27.95 156.74-2.1Q156.74 0.3 153.79 0.3L153.79 0.3Q150.84 0.3 150.84-2.1L150.84-2.1 150.84-36.55Q150.84-38.45 152.59-39.2L152.59-39.2Q154.44-39.95 156.14-39.9L156.14-39.9Q156.89-39.9 157.69-39.7 158.49-39.5 159.19-39.13 159.89-38.75 160.44-38.18 160.99-37.6 161.29-36.85L161.29-36.85 169.14-10.1Q169.99-13.05 170.94-16.5 171.89-19.95 172.89-23.5 173.89-27.05 174.86-30.53 175.84-34 176.69-37L176.69-37Q176.99-37.7 177.54-38.25 178.09-38.8 178.79-39.18 179.49-39.55 180.26-39.75 181.04-39.95 181.79-39.95ZM215.59 0.05L197.29 0.05Q195.44 0.05 194.79-0.9 194.14-1.85 194.14-3L194.14-3 194.14-36.7Q194.14-37.85 194.79-38.78 195.44-39.7 197.29-39.7L197.29-39.7 214.69-39.7Q216.54-39.7 216.64-37.2L216.64-37.2Q216.74-34.65 214.69-34.65L214.69-34.65 200.04-34.65 200.04-5 215.59-5Q217.44-5 217.49-2.55L217.49-2.55Q217.59 0.05 215.59 0.05L215.59 0.05ZM212.84-20.65L212.84-20.65Q212.84-18.9 211.61-17.7 210.39-16.5 208.64-16.5L208.64-16.5Q206.94-16.5 205.74-17.7 204.54-18.9 204.54-20.65L204.54-20.65Q204.54-22.4 205.74-23.6 206.94-24.8 208.64-24.8L208.64-24.8Q210.39-24.8 211.61-23.6 212.84-22.4 212.84-20.65ZM244.38 0.05L226.08 0.05Q224.23 0.05 223.58-0.9 222.93-1.85 222.93-3L222.93-3 222.93-36.7Q222.93-37.85 223.58-38.78 224.23-39.7 226.08-39.7L226.08-39.7 243.48-39.7Q245.33-39.7 245.43-37.2L245.43-37.2Q245.53-34.65 243.48-34.65L243.48-34.65 228.83-34.65 228.83-5 244.38-5Q246.23-5 246.28-2.55L246.28-2.55Q246.38 0.05 244.38 0.05L244.38 0.05ZM241.63-20.65L241.63-20.65Q241.63-18.9 240.41-17.7 239.18-16.5 237.43-16.5L237.43-16.5Q235.73-16.5 234.53-17.7 233.33-18.9 233.33-20.65L233.33-20.65Q233.33-22.4 234.53-23.6 235.73-24.8 237.43-24.8L237.43-24.8Q239.18-24.8 240.41-23.6 241.63-22.4 241.63-20.65ZM265.03-34.65L265.03-2Q265.03 0.4 262.03 0.4L262.03 0.4Q259.08 0.4 259.08-2L259.08-2 259.08-34.65 250.33-34.65Q248.53-34.65 248.43-37.2L248.43-37.2Q248.43-39.7 250.33-39.7L250.33-39.7 273.78-39.7Q275.68-39.7 275.58-37.2L275.58-37.2Q275.58-34.65 273.78-34.65L273.78-34.65 265.03-34.65Z" opacity="1" transform="matrix(1,0,0,1,0,0)" fill="white" class="undefined-text-0" id="SvgjsPath4326"></path></svg></g></svg></g></svg></g></svg></g></svg></g></svg></g><g mask="url(&quot;#a1596a81-691e-45cb-8de8-efb106848ff7&quot;)"><g transform="matrix(5.379630222119129, 0, 0, 5.379630222119129, 1, 21.79050215072762)"><svg xmlns="http://www.w3.org/2000/svg" data-name="Layer 1" viewBox="13.229999542236328 30.540000915527344 73.15000915527344 37.849998474121094" x="0" y="0" height="37.849998474121094" width="73.15000915527344" class="icon-none" data-fill-palette-color="accent" id="SvgjsSvg4325"></svg></g></g></svg></g><defs><mask id="SvgjsMask4324"></mask><mask></mask></defs></svg></g></mask><mask id="2cc3fbce-c722-4a48-9f25-3631332fc7ff"><g id="SvgjsG4343"><svg viewBox="0 0 395.52 247.2" height="247.2" width="395.52"><g><svg></svg></g><g><svg viewBox="0 0 395.52 247.2" height="247.2" width="395.52"><g transform="matrix(1,0,0,1,39.55199999999999,100.04994307400379)"><svg viewBox="0 0 316.416 47.10011385199241" height="47.10011385199241" width="316.416"><g><svg viewBox="0 0 316.416 47.10011385199241" height="47.10011385199241" width="316.416"><g><svg viewBox="0 0 316.416 47.10011385199241" height="47.10011385199241" width="316.416"><g id="SvgjsG4342"><svg viewBox="0 0 316.416 47.10011385199241" height="47.10011385199241" width="316.416" id="SvgjsSvg4341"><g><svg viewBox="0 0 316.416 47.10011385199241" height="47.10011385199241" width="316.416"><g transform="matrix(1,0,0,1,0,0)"><svg width="316.416" viewBox="4.199999809265137 -39.95000076293945 271.3849792480469 40.400001525878906" height="47.10011385199241" data-palette-color="url(#7b322a0f-fc1c-4640-8515-e1d6559a359f)"></svg></g></svg></g></svg></g></svg></g></svg></g></svg></g><g mask="url(&quot;#a1596a81-691e-45cb-8de8-efb106848ff7&quot;)"><g transform="matrix(5.379630222119129, 0, 0, 5.379630222119129, 1, 21.79050215072762)"><svg xmlns="http://www.w3.org/2000/svg" data-name="Layer 1" viewBox="13.229999542236328 30.540000915527344 73.15000915527344 37.849998474121094" x="0" y="0" height="37.849998474121094" width="73.15000915527344" class="icon-none" data-fill-palette-color="accent" id="SvgjsSvg4340"><path d="M83.65 46.76H65.52a2.89 2.89 0 0 0-2.09 0.86L49.8 61.24l-9.91-9.91V59.7l7.82 7.82a3 3 0 0 0 4.18 0L62.78 56.63v9a2.74 2.74 0 0 0 2.73 2.73H83.65a2.73 2.73 0 0 0 2.73-2.73V49.49A2.74 2.74 0 0 0 83.65 46.76Z" fill="white"></path><rect x="13.23" y="46.76" width="23.6" height="21.63" rx="2.73" ry="2.73" fill="white"></rect><circle cx="25.03" cy="36.86" r="6.3" fill="white"></circle><circle cx="25.03" cy="36.86" r="6.3" fill="white"></circle><circle cx="74.58" cy="36.86" r="6.3" fill="white"></circle><circle cx="74.58" cy="36.86" r="6.3" fill="white"></circle></svg></g></g></svg></g><defs><mask id="SvgjsMask4339"></mask><linearGradient x1="0" x2="1" y1="0.5" y2="0.5" id="SvgjsLinearGradient4337"><stop stop-color="#f00b51" offset="0"></stop><stop stop-color="#730062" offset="1"></stop></linearGradient><mask></mask></defs><mask id="SvgjsMask4336"><g id="SvgjsG4335"><svg viewBox="0 0 395.52 247.2" height="247.2" width="395.52"><g><svg></svg></g><g><svg viewBox="0 0 395.52 247.2" height="247.2" width="395.52"><g transform="matrix(1,0,0,1,39.55199999999999,100.04994307400379)"><svg viewBox="0 0 316.416 47.10011385199241" height="47.10011385199241" width="316.416"><g><svg viewBox="0 0 316.416 47.10011385199241" height="47.10011385199241" width="316.416"><g><svg viewBox="0 0 316.416 47.10011385199241" height="47.10011385199241" width="316.416"><g id="SvgjsG4334"><svg viewBox="0 0 316.416 47.10011385199241" height="47.10011385199241" width="316.416" id="SvgjsSvg4333"><g><svg viewBox="0 0 316.416 47.10011385199241" height="47.10011385199241" width="316.416"><g transform="matrix(1,0,0,1,0,0)"><svg width="316.416" viewBox="4.199999809265137 -39.95000076293945 271.3849792480469 40.400001525878906" height="47.10011385199241" data-palette-color="url(#7b322a0f-fc1c-4640-8515-e1d6559a359f)"></svg></g></svg></g></svg></g></svg></g></svg></g></svg></g><g mask="url(&quot;#a1596a81-691e-45cb-8de8-efb106848ff7&quot;)"><g transform="matrix(5.379630222119129, 0, 0, 5.379630222119129, 1, 21.79050215072762)"><svg xmlns="http://www.w3.org/2000/svg" data-name="Layer 1" viewBox="13.229999542236328 30.540000915527344 73.15000915527344 37.849998474121094" x="0" y="0" height="37.849998474121094" width="73.15000915527344" class="icon-none" data-fill-palette-color="accent" id="SvgjsSvg4331"></svg></g></g></svg></g><defs><mask id="SvgjsMask4330"></mask><mask></mask></defs></svg></g></mask></svg></g></mask></svg><rect width="395.52" height="247.2" fill="none" stroke="none" visibility="hidden"></rect></g></svg></g></svg>